<?xml version="1.0" encoding="UTF-8"?>
<!--Generator: Apple Native CoreSVG 341-->
<!DOCTYPE svg
PUBLIC "-//W3C//DTD SVG 1.1//EN"
       "http://www.w3.org/Graphics/SVG/1.1/DTD/svg11.dtd">
<svg version="1.1" xmlns="http://www.w3.org/2000/svg" xmlns:xlink="http://www.w3.org/1999/xlink" viewBox="0 0 471.826 295.752">
 <defs>
  <linearGradient id="gradient1" x1="5" x2="5" y2="295.312" gradientUnits="userSpaceOnUse">
   <stop offset="0" stop-color="rgba(255,255,255,0.85)" stop-opacity="1"/>
   <stop offset="1" stop-color="rgba(226,226,226,0.85)" stop-opacity="1"/>
  </linearGradient>
 </defs>
 <g>
  <rect height="295.752" opacity="0" width="471.826" x="0" y="0"/>
  <path d="M56.9824 295.312L414.844 295.312C452.637 295.312 471.826 276.123 471.826 238.77L471.826 56.543C471.826 19.1895 452.637 0 414.844 0L56.9824 0C19.043 0 0 19.043 0 56.543L0 238.77C0 276.27 19.043 295.312 56.9824 295.312ZM71.0449 101.953C65.625 101.953 62.5488 98.7305 62.5488 93.457L62.5488 76.4648C62.5488 71.1914 65.625 67.9688 71.0449 67.9688L87.8906 67.9688C93.3105 67.9688 96.5332 71.1914 96.5332 76.4648L96.5332 93.457C96.5332 98.7305 93.3105 101.953 87.8906 101.953ZM133.301 101.953C127.881 101.953 124.805 98.7305 124.805 93.457L124.805 76.4648C124.805 71.1914 127.881 67.9688 133.301 67.9688L150.293 67.9688C155.566 67.9688 158.789 71.1914 158.789 76.4648L158.789 93.457C158.789 98.7305 155.566 101.953 150.293 101.953ZM195.557 101.953C190.43 101.953 187.207 98.7305 187.207 93.457L187.207 76.4648C187.207 71.1914 190.43 67.9688 195.557 67.9688L212.549 67.9688C217.822 67.9688 221.191 71.1914 221.191 76.4648L221.191 93.457C221.191 98.7305 217.822 101.953 212.549 101.953ZM257.959 101.953C252.686 101.953 249.463 98.7305 249.463 93.457L249.463 76.4648C249.463 71.1914 252.686 67.9688 257.959 67.9688L274.951 67.9688C280.225 67.9688 283.447 71.1914 283.447 76.4648L283.447 93.457C283.447 98.7305 280.225 101.953 274.951 101.953ZM320.361 101.953C314.941 101.953 311.719 98.7305 311.719 93.457L311.719 76.4648C311.719 71.1914 314.941 67.9688 320.361 67.9688L337.207 67.9688C342.627 67.9688 345.703 71.1914 345.703 76.4648L345.703 93.457C345.703 98.7305 342.627 101.953 337.207 101.953ZM382.617 101.953C377.197 101.953 373.975 98.7305 373.975 93.457L373.975 76.4648C373.975 71.1914 377.197 67.9688 382.617 67.9688L399.463 67.9688C404.883 67.9688 407.959 71.1914 407.959 76.4648L407.959 93.457C407.959 98.7305 404.883 101.953 399.463 101.953ZM71.0449 164.355C65.625 164.355 62.5488 160.986 62.5488 155.859L62.5488 138.721C62.5488 133.594 65.625 130.225 71.0449 130.225L87.8906 130.225C93.3105 130.225 96.5332 133.594 96.5332 138.721L96.5332 155.859C96.5332 160.986 93.3105 164.355 87.8906 164.355ZM133.301 164.355C127.881 164.355 124.805 160.986 124.805 155.859L124.805 138.721C124.805 133.594 127.881 130.225 133.301 130.225L150.293 130.225C155.566 130.225 158.789 133.594 158.789 138.721L158.789 155.859C158.789 160.986 155.566 164.355 150.293 164.355ZM195.557 164.355C190.43 164.355 187.207 160.986 187.207 155.859L187.207 138.721C187.207 133.594 190.43 130.225 195.557 130.225L212.549 130.225C217.822 130.225 221.191 133.594 221.191 138.721L221.191 155.859C221.191 160.986 217.822 164.355 212.549 164.355ZM257.959 164.355C252.686 164.355 249.463 160.986 249.463 155.859L249.463 138.721C249.463 133.594 252.686 130.225 257.959 130.225L274.951 130.225C280.225 130.225 283.447 133.594 283.447 138.721L283.447 155.859C283.447 160.986 280.225 164.355 274.951 164.355ZM320.361 164.355C314.941 164.355 311.719 160.986 311.719 155.859L311.719 138.721C311.719 133.594 314.941 130.225 320.361 130.225L337.207 130.225C342.627 130.225 345.703 133.594 345.703 138.721L345.703 155.859C345.703 160.986 342.627 164.355 337.207 164.355ZM382.617 164.355C377.197 164.355 373.975 160.986 373.975 155.859L373.975 138.721C373.975 133.594 377.197 130.225 382.617 130.225L399.463 130.225C404.883 130.225 407.959 133.594 407.959 138.721L407.959 155.859C407.959 160.986 404.883 164.355 399.463 164.355ZM71.0449 226.611C65.625 226.611 62.5488 223.389 62.5488 218.115L62.5488 201.123C62.5488 195.85 65.625 192.627 71.0449 192.627L87.8906 192.627C93.3105 192.627 96.5332 195.85 96.5332 201.123L96.5332 218.115C96.5332 223.389 93.3105 226.611 87.8906 226.611ZM134.912 226.611C128.613 226.611 124.805 222.803 124.805 216.504L124.805 202.734C124.805 196.289 128.613 192.627 134.912 192.627L335.596 192.627C342.041 192.627 345.703 196.289 345.703 202.734L345.703 216.504C345.703 222.803 342.041 226.611 335.596 226.611ZM382.617 226.611C377.197 226.611 373.975 223.389 373.975 218.115L373.975 201.123C373.975 195.85 377.197 192.627 382.617 192.627L399.463 192.627C404.883 192.627 407.959 195.85 407.959 201.123L407.959 218.115C407.959 223.389 404.883 226.611 399.463 226.611Z" fill="url(#gradient1)"/>
 </g>
</svg>
